<?xml version="1.0" standalone="no"?><svg xmlns="http://www.w3.org/2000/svg" viewBox="0 0 1440 320"><path fill="#21242D" fill-opacity="1" d="M0,256L18.5,240C36.9,224,74,192,111,176C147.7,160,185,160,222,176C258.5,192,295,224,332,197.3C369.2,171,406,85,443,85.3C480,85,517,171,554,208C590.8,245,628,235,665,224C701.5,213,738,203,775,192C812.3,181,849,171,886,181.3C923.1,192,960,224,997,234.7C1033.8,245,1071,235,1108,229.3C1144.6,224,1182,224,1218,213.3C1255.4,203,1292,181,1329,149.3C1366.2,117,1403,75,1422,53.3L1440,32L1440,320L1421.5,320C1403.1,320,1366,320,1329,320C1292.3,320,1255,320,1218,320C1181.5,320,1145,320,1108,320C1070.8,320,1034,320,997,320C960,320,923,320,886,320C849.2,320,812,320,775,320C738.5,320,702,320,665,320C627.7,320,591,320,554,320C516.9,320,480,320,443,320C406.2,320,369,320,332,320C295.4,320,258,320,222,320C184.6,320,148,320,111,320C73.8,320,37,320,18,320L0,320Z"></path></svg>